<mxfile host="app.diagrams.net" agent="Mozilla/5.0 (Windows NT 10.0; Win64; x64) AppleWebKit/537.36 (KHTML, like Gecko) Chrome/131.0.0.0 Safari/537.36" version="24.8.6">
  <diagram name="Page-1" id="ZuetC5XYxQ3XKDyeh2b8">
    <mxGraphModel dx="964" dy="592" grid="1" gridSize="10" guides="1" tooltips="1" connect="1" arrows="1" fold="1" page="1" pageScale="1" pageWidth="827" pageHeight="1169" math="0" shadow="0">
      <root>
        <mxCell id="0" />
        <mxCell id="1" parent="0" />
        <mxCell id="m-4hIQH8dKbX-3ewklp5-14" value="Load balancer" style="shape=cylinder3;whiteSpace=wrap;html=1;boundedLbl=1;backgroundOutline=1;size=15;fillColor=#ffff88;strokeColor=#36393d;" vertex="1" parent="1">
          <mxGeometry x="190" y="190" width="60" height="80" as="geometry" />
        </mxCell>
        <mxCell id="m-4hIQH8dKbX-3ewklp5-20" value="" style="endArrow=classic;html=1;rounded=0;entryX=0;entryY=0;entryDx=0;entryDy=52.5;entryPerimeter=0;" edge="1" parent="1" target="m-4hIQH8dKbX-3ewklp5-14">
          <mxGeometry width="50" height="50" relative="1" as="geometry">
            <mxPoint x="140" y="255" as="sourcePoint" />
            <mxPoint x="190" y="205" as="targetPoint" />
          </mxGeometry>
        </mxCell>
        <mxCell id="m-4hIQH8dKbX-3ewklp5-21" value="" style="endArrow=classic;html=1;rounded=0;entryX=0.145;entryY=1;entryDx=0;entryDy=-4.35;entryPerimeter=0;" edge="1" parent="1" target="m-4hIQH8dKbX-3ewklp5-14">
          <mxGeometry width="50" height="50" relative="1" as="geometry">
            <mxPoint x="140" y="390" as="sourcePoint" />
            <mxPoint x="190" y="340" as="targetPoint" />
          </mxGeometry>
        </mxCell>
        <mxCell id="m-4hIQH8dKbX-3ewklp5-22" value="" style="endArrow=classic;html=1;rounded=0;entryX=0;entryY=0;entryDx=0;entryDy=27.5;entryPerimeter=0;" edge="1" parent="1" target="m-4hIQH8dKbX-3ewklp5-14">
          <mxGeometry width="50" height="50" relative="1" as="geometry">
            <mxPoint x="130" y="146" as="sourcePoint" />
            <mxPoint x="180" y="134" as="targetPoint" />
          </mxGeometry>
        </mxCell>
        <UserObject label="Wishlist Service" treeRoot="1" id="m-4hIQH8dKbX-3ewklp5-23">
          <mxCell style="whiteSpace=wrap;html=1;align=center;treeFolding=1;treeMoving=1;newEdgeStyle={&quot;edgeStyle&quot;:&quot;elbowEdgeStyle&quot;,&quot;startArrow&quot;:&quot;none&quot;,&quot;endArrow&quot;:&quot;none&quot;};strokeColor=#d79b00;fillColor=#ffe6cc;" vertex="1" parent="1">
            <mxGeometry x="250" y="50" width="120" height="60" as="geometry" />
          </mxCell>
        </UserObject>
        <UserObject label="Search Service" treeRoot="1" id="m-4hIQH8dKbX-3ewklp5-24">
          <mxCell style="whiteSpace=wrap;html=1;align=center;treeFolding=1;treeMoving=1;newEdgeStyle={&quot;edgeStyle&quot;:&quot;elbowEdgeStyle&quot;,&quot;startArrow&quot;:&quot;none&quot;,&quot;endArrow&quot;:&quot;none&quot;};strokeColor=#d79b00;fillColor=#ffe6cc;" vertex="1" parent="1">
            <mxGeometry x="270" y="150" width="120" height="60" as="geometry" />
          </mxCell>
        </UserObject>
        <UserObject label="Cart Service" treeRoot="1" id="m-4hIQH8dKbX-3ewklp5-25">
          <mxCell style="whiteSpace=wrap;html=1;align=center;treeFolding=1;treeMoving=1;newEdgeStyle={&quot;edgeStyle&quot;:&quot;elbowEdgeStyle&quot;,&quot;startArrow&quot;:&quot;none&quot;,&quot;endArrow&quot;:&quot;none&quot;};strokeColor=#d79b00;fillColor=#ffe6cc;" vertex="1" parent="1">
            <mxGeometry x="414" y="90" width="120" height="60" as="geometry" />
          </mxCell>
        </UserObject>
        <UserObject label="Inventory Management&lt;div&gt;Service&lt;/div&gt;" treeRoot="1" id="m-4hIQH8dKbX-3ewklp5-26">
          <mxCell style="whiteSpace=wrap;html=1;align=center;treeFolding=1;treeMoving=1;newEdgeStyle={&quot;edgeStyle&quot;:&quot;elbowEdgeStyle&quot;,&quot;startArrow&quot;:&quot;none&quot;,&quot;endArrow&quot;:&quot;none&quot;};strokeColor=#d79b00;fillColor=#ffe6cc;" vertex="1" parent="1">
            <mxGeometry x="390" y="360" width="120" height="60" as="geometry" />
          </mxCell>
        </UserObject>
        <UserObject label="Pricing Service" treeRoot="1" id="m-4hIQH8dKbX-3ewklp5-28">
          <mxCell style="whiteSpace=wrap;html=1;align=center;treeFolding=1;treeMoving=1;newEdgeStyle={&quot;edgeStyle&quot;:&quot;elbowEdgeStyle&quot;,&quot;startArrow&quot;:&quot;none&quot;,&quot;endArrow&quot;:&quot;none&quot;};strokeColor=#d79b00;fillColor=#ffe6cc;" vertex="1" parent="1">
            <mxGeometry x="180" y="430" width="120" height="60" as="geometry" />
          </mxCell>
        </UserObject>
        <mxCell id="m-4hIQH8dKbX-3ewklp5-30" value="Distibuted Queue" style="ellipse;whiteSpace=wrap;html=1;fillColor=#f8cecc;gradientColor=#ea6b66;strokeColor=#b85450;" vertex="1" parent="1">
          <mxGeometry x="580" y="290" width="150" height="90" as="geometry" />
        </mxCell>
        <mxCell id="m-4hIQH8dKbX-3ewklp5-31" value="DB Cluster&amp;nbsp;&lt;div&gt;(MongoDB)&lt;/div&gt;" style="ellipse;whiteSpace=wrap;html=1;aspect=fixed;fillColor=#dae8fc;strokeColor=#6c8ebf;" vertex="1" parent="1">
          <mxGeometry x="434" y="460" width="100" height="100" as="geometry" />
        </mxCell>
        <mxCell id="m-4hIQH8dKbX-3ewklp5-33" value="DB (Cart)" style="ellipse;whiteSpace=wrap;html=1;aspect=fixed;fillColor=#dae8fc;strokeColor=#6c8ebf;" vertex="1" parent="1">
          <mxGeometry x="420" width="70" height="70" as="geometry" />
        </mxCell>
        <mxCell id="m-4hIQH8dKbX-3ewklp5-34" value="DB(Wishlist)&lt;div&gt;MySQL&lt;/div&gt;" style="ellipse;whiteSpace=wrap;html=1;aspect=fixed;fillColor=#dae8fc;strokeColor=#6c8ebf;" vertex="1" parent="1">
          <mxGeometry x="140" y="20" width="80" height="80" as="geometry" />
        </mxCell>
        <mxCell id="m-4hIQH8dKbX-3ewklp5-35" value="Redis Cluster" style="shape=process;whiteSpace=wrap;html=1;backgroundOutline=1;fillColor=#e1d5e7;strokeColor=#9673a6;" vertex="1" parent="1">
          <mxGeometry x="230" y="525" width="120" height="60" as="geometry" />
        </mxCell>
        <mxCell id="m-4hIQH8dKbX-3ewklp5-36" value="Spark Jobs" style="shape=trapezoid;perimeter=trapezoidPerimeter;whiteSpace=wrap;html=1;fixedSize=1;fillColor=#f5f5f5;gradientColor=#b3b3b3;strokeColor=#666666;" vertex="1" parent="1">
          <mxGeometry x="650" y="410" width="120" height="60" as="geometry" />
        </mxCell>
        <mxCell id="m-4hIQH8dKbX-3ewklp5-38" value="Elastic Search&lt;div&gt;Cluster&lt;/div&gt;" style="shape=process;whiteSpace=wrap;html=1;backgroundOutline=1;fillColor=#e1d5e7;strokeColor=#9673a6;" vertex="1" parent="1">
          <mxGeometry x="420" y="170" width="120" height="60" as="geometry" />
        </mxCell>
        <mxCell id="m-4hIQH8dKbX-3ewklp5-39" value="User&amp;nbsp;&lt;div&gt;Search&lt;/div&gt;&lt;div&gt;Flow&lt;/div&gt;" style="shape=step;perimeter=stepPerimeter;whiteSpace=wrap;html=1;fixedSize=1;fillColor=#d5e8d4;strokeColor=#82b366;" vertex="1" parent="1">
          <mxGeometry x="10" y="100" width="120" height="80" as="geometry" />
        </mxCell>
        <mxCell id="m-4hIQH8dKbX-3ewklp5-40" value="User App" style="shape=step;perimeter=stepPerimeter;whiteSpace=wrap;html=1;fixedSize=1;fillColor=#d5e8d4;strokeColor=#82b366;" vertex="1" parent="1">
          <mxGeometry x="20" y="350" width="120" height="80" as="geometry" />
        </mxCell>
        <mxCell id="m-4hIQH8dKbX-3ewklp5-41" value="Web App&lt;div&gt;Client&lt;/div&gt;" style="shape=step;perimeter=stepPerimeter;whiteSpace=wrap;html=1;fixedSize=1;fillColor=#d5e8d4;strokeColor=#82b366;" vertex="1" parent="1">
          <mxGeometry x="20" y="220" width="120" height="80" as="geometry" />
        </mxCell>
        <UserObject label="User Service" treeRoot="1" id="m-4hIQH8dKbX-3ewklp5-43">
          <mxCell style="whiteSpace=wrap;html=1;align=center;treeFolding=1;treeMoving=1;newEdgeStyle={&quot;edgeStyle&quot;:&quot;elbowEdgeStyle&quot;,&quot;startArrow&quot;:&quot;none&quot;,&quot;endArrow&quot;:&quot;none&quot;};strokeColor=#d79b00;fillColor=#ffe6cc;" vertex="1" parent="1">
            <mxGeometry x="410" y="260" width="120" height="60" as="geometry" />
          </mxCell>
        </UserObject>
        <mxCell id="m-4hIQH8dKbX-3ewklp5-44" value="" style="endArrow=classic;html=1;rounded=0;entryX=0;entryY=0.5;entryDx=0;entryDy=0;" edge="1" parent="1" target="m-4hIQH8dKbX-3ewklp5-24">
          <mxGeometry width="50" height="50" relative="1" as="geometry">
            <mxPoint x="230" y="190" as="sourcePoint" />
            <mxPoint x="280" y="140" as="targetPoint" />
          </mxGeometry>
        </mxCell>
        <mxCell id="m-4hIQH8dKbX-3ewklp5-46" value="" style="endArrow=classic;html=1;rounded=0;entryX=0.5;entryY=0;entryDx=0;entryDy=0;" edge="1" parent="1" target="m-4hIQH8dKbX-3ewklp5-27">
          <mxGeometry width="50" height="50" relative="1" as="geometry">
            <mxPoint x="240" y="270" as="sourcePoint" />
            <mxPoint x="290" y="220" as="targetPoint" />
          </mxGeometry>
        </mxCell>
        <mxCell id="m-4hIQH8dKbX-3ewklp5-48" value="" style="endArrow=classic;startArrow=classic;html=1;rounded=0;entryX=0.321;entryY=1.05;entryDx=0;entryDy=0;entryPerimeter=0;" edge="1" parent="1" target="m-4hIQH8dKbX-3ewklp5-27">
          <mxGeometry width="50" height="50" relative="1" as="geometry">
            <mxPoint x="220" y="430" as="sourcePoint" />
            <mxPoint x="270" y="380" as="targetPoint" />
          </mxGeometry>
        </mxCell>
        <mxCell id="m-4hIQH8dKbX-3ewklp5-49" value="" style="endArrow=classic;html=1;rounded=0;" edge="1" parent="1">
          <mxGeometry width="50" height="50" relative="1" as="geometry">
            <mxPoint x="330" y="370" as="sourcePoint" />
            <mxPoint x="330" y="520" as="targetPoint" />
          </mxGeometry>
        </mxCell>
        <mxCell id="m-4hIQH8dKbX-3ewklp5-50" value="" style="endArrow=classic;startArrow=classic;html=1;rounded=0;entryX=0;entryY=0.5;entryDx=0;entryDy=0;" edge="1" parent="1" source="m-4hIQH8dKbX-3ewklp5-27" target="m-4hIQH8dKbX-3ewklp5-26">
          <mxGeometry width="50" height="50" relative="1" as="geometry">
            <mxPoint x="320" y="360" as="sourcePoint" />
            <mxPoint x="380" y="380" as="targetPoint" />
          </mxGeometry>
        </mxCell>
        <mxCell id="m-4hIQH8dKbX-3ewklp5-51" value="" style="endArrow=classic;startArrow=classic;html=1;rounded=0;" edge="1" parent="1" target="m-4hIQH8dKbX-3ewklp5-27">
          <mxGeometry width="50" height="50" relative="1" as="geometry">
            <mxPoint x="320" y="360" as="sourcePoint" />
            <mxPoint x="370" y="310" as="targetPoint" />
          </mxGeometry>
        </mxCell>
        <UserObject label="Order Taking Service" treeRoot="1" id="m-4hIQH8dKbX-3ewklp5-27">
          <mxCell style="whiteSpace=wrap;html=1;align=center;treeFolding=1;treeMoving=1;newEdgeStyle={&quot;edgeStyle&quot;:&quot;elbowEdgeStyle&quot;,&quot;startArrow&quot;:&quot;none&quot;,&quot;endArrow&quot;:&quot;none&quot;};strokeColor=#d79b00;fillColor=#ffe6cc;" vertex="1" parent="1">
            <mxGeometry x="220" y="310" width="120" height="60" as="geometry" />
          </mxCell>
        </UserObject>
        <mxCell id="m-4hIQH8dKbX-3ewklp5-52" value="" style="endArrow=classic;html=1;rounded=0;entryX=0.5;entryY=0;entryDx=0;entryDy=0;" edge="1" parent="1" target="m-4hIQH8dKbX-3ewklp5-31">
          <mxGeometry width="50" height="50" relative="1" as="geometry">
            <mxPoint x="484" y="420" as="sourcePoint" />
            <mxPoint x="534" y="370" as="targetPoint" />
          </mxGeometry>
        </mxCell>
        <mxCell id="m-4hIQH8dKbX-3ewklp5-53" value="" style="endArrow=classic;html=1;rounded=0;entryX=0.037;entryY=0.656;entryDx=0;entryDy=0;entryPerimeter=0;" edge="1" parent="1" target="m-4hIQH8dKbX-3ewklp5-30">
          <mxGeometry width="50" height="50" relative="1" as="geometry">
            <mxPoint x="510" y="400" as="sourcePoint" />
            <mxPoint x="560" y="350" as="targetPoint" />
          </mxGeometry>
        </mxCell>
        <mxCell id="m-4hIQH8dKbX-3ewklp5-54" value="" style="endArrow=classic;html=1;rounded=0;" edge="1" parent="1" target="m-4hIQH8dKbX-3ewklp5-30">
          <mxGeometry width="50" height="50" relative="1" as="geometry">
            <mxPoint x="540" y="215" as="sourcePoint" />
            <mxPoint x="590" y="165" as="targetPoint" />
          </mxGeometry>
        </mxCell>
        <mxCell id="m-4hIQH8dKbX-3ewklp5-55" value="" style="endArrow=classic;html=1;rounded=0;entryX=0.367;entryY=1;entryDx=0;entryDy=0;entryPerimeter=0;" edge="1" parent="1" target="m-4hIQH8dKbX-3ewklp5-23">
          <mxGeometry width="50" height="50" relative="1" as="geometry">
            <mxPoint x="290" y="150" as="sourcePoint" />
            <mxPoint x="340" y="100" as="targetPoint" />
          </mxGeometry>
        </mxCell>
        <mxCell id="m-4hIQH8dKbX-3ewklp5-56" value="" style="endArrow=classic;html=1;rounded=0;entryX=1.013;entryY=0.606;entryDx=0;entryDy=0;entryPerimeter=0;" edge="1" parent="1" target="m-4hIQH8dKbX-3ewklp5-34">
          <mxGeometry width="50" height="50" relative="1" as="geometry">
            <mxPoint x="250" y="70" as="sourcePoint" />
            <mxPoint x="300" y="20" as="targetPoint" />
          </mxGeometry>
        </mxCell>
        <mxCell id="m-4hIQH8dKbX-3ewklp5-57" value="" style="endArrow=classic;html=1;rounded=0;entryX=0.743;entryY=0.957;entryDx=0;entryDy=0;entryPerimeter=0;" edge="1" parent="1" target="m-4hIQH8dKbX-3ewklp5-33">
          <mxGeometry width="50" height="50" relative="1" as="geometry">
            <mxPoint x="500" y="90" as="sourcePoint" />
            <mxPoint x="550" y="40" as="targetPoint" />
          </mxGeometry>
        </mxCell>
        <mxCell id="m-4hIQH8dKbX-3ewklp5-58" value="" style="endArrow=classic;startArrow=classic;html=1;rounded=0;entryX=0.333;entryY=0;entryDx=0;entryDy=0;entryPerimeter=0;" edge="1" parent="1" target="m-4hIQH8dKbX-3ewklp5-38">
          <mxGeometry width="50" height="50" relative="1" as="geometry">
            <mxPoint x="390" y="160" as="sourcePoint" />
            <mxPoint x="440" y="110" as="targetPoint" />
            <Array as="points">
              <mxPoint x="450" y="160" />
            </Array>
          </mxGeometry>
        </mxCell>
        <mxCell id="m-4hIQH8dKbX-3ewklp5-60" value="" style="endArrow=classic;startArrow=classic;html=1;rounded=0;exitX=0;exitY=0.5;exitDx=0;exitDy=0;" edge="1" parent="1" source="m-4hIQH8dKbX-3ewklp5-43">
          <mxGeometry width="50" height="50" relative="1" as="geometry">
            <mxPoint x="320" y="260" as="sourcePoint" />
            <mxPoint x="370" y="210" as="targetPoint" />
            <Array as="points">
              <mxPoint x="360" y="250" />
            </Array>
          </mxGeometry>
        </mxCell>
        <mxCell id="m-4hIQH8dKbX-3ewklp5-61" value="" style="endArrow=classic;html=1;rounded=0;entryX=0;entryY=0.333;entryDx=0;entryDy=0;entryPerimeter=0;" edge="1" parent="1" target="m-4hIQH8dKbX-3ewklp5-30">
          <mxGeometry width="50" height="50" relative="1" as="geometry">
            <mxPoint x="530" y="310" as="sourcePoint" />
            <mxPoint x="580" y="260" as="targetPoint" />
          </mxGeometry>
        </mxCell>
        <mxCell id="m-4hIQH8dKbX-3ewklp5-62" value="" style="endArrow=classic;html=1;rounded=0;entryX=0.442;entryY=0.008;entryDx=0;entryDy=0;entryPerimeter=0;" edge="1" parent="1" target="m-4hIQH8dKbX-3ewklp5-36">
          <mxGeometry width="50" height="50" relative="1" as="geometry">
            <mxPoint x="670" y="380" as="sourcePoint" />
            <mxPoint x="720" y="330" as="targetPoint" />
          </mxGeometry>
        </mxCell>
      </root>
    </mxGraphModel>
  </diagram>
</mxfile>
